# xmcd
#
# Track frame offsets:
#	150
#	20325
#	41820
#	62690
#	86340
#	110067
#	136935
#	158017
#	179317
#	203270
#
# Disc length: 3047 seconds
#
# Revision: 4
# Processed by: cddbd v1.5PL3 Copyright (c) Steve Scherf et al.
# Submitted via: CDex 1.50Beta5
#
DISCID=780be50a
DTITLE=西脇唯 - さよならの場所で会いましょう
DYEAR=1993
DGENRE=New Age
TTITLE0=さよならの場所で会いましょう
TTITLE1=風の住む星
TTITLE2=BLUE ROSES
TTITLE3=愛で終わるとはかぎらない
TTITLE4=思いだけあたたかい
TTITLE5=クレッシェンド
TTITLE6=7月の雨なら
TTITLE7=スノーフレークの咲く中庭で
TTITLE8=忘れない
TTITLE9=Only Place
EXTD=
EXTT0=
EXTT1=
EXTT2=
EXTT3=
EXTT4=
EXTT5=
EXTT6=
EXTT7=
EXTT8=
EXTT9=
PLAYORDER=
